<?xml version="1.0" encoding="utf-8"?><!-- Uploaded to: SVG Repo, www.svgrepo.com, Generator: SVG Repo Mixer Tools -->
<svg width="800px" height="800px" viewBox="0 0 24 24" fill="none" xmlns="http://www.w3.org/2000/svg">
<path fill-rule="evenodd" clip-rule="evenodd" d="M14 3.00001C14 1.07799 11.5532 0.262376 10.4 1.8L6.5 7H4C2.34315 7 1 8.34315 1 10V14C1 15.6569 2.34315 17 4 17H6.49356L10.3878 22.3049C11.5313 23.8627 14 23.0539 14 21.1214V3.00001ZM8.1 8.2L12 3V21.1214L8.10581 15.8165C7.72901 15.3032 7.13031 15 6.49356 15H4C3.44772 15 3 14.5523 3 14V10C3 9.44772 3.44772 9 4 9H6.5C7.12951 9 7.72229 8.70361 8.1 8.2Z" fill="#0F0F0F"/>
<path d="M21.2929 8.57094C21.6834 8.18041 22.3166 8.18042 22.7071 8.57094C23.0976 8.96146 23.0976 9.59463 22.7071 9.98515L20.7603 11.9319L22.7071 13.8787C23.0976 14.2692 23.0976 14.9024 22.7071 15.2929C22.3166 15.6834 21.6834 15.6834 21.2929 15.2929L19.3461 13.3461L17.3994 15.2929C17.0088 15.6834 16.3757 15.6834 15.9852 15.2929C15.5946 14.9023 15.5946 14.2692 15.9852 13.8787L17.9319 11.9319L15.9852 9.98517C15.5946 9.59464 15.5946 8.96148 15.9852 8.57096C16.3757 8.18043 17.0088 8.18043 17.3994 8.57096L19.3461 10.5177L21.2929 8.57094Z" fill="#0F0F0F"/>
</svg>